<svg width="222" height="99" viewBox="0 0 222 99" fill="none" xmlns="http://www.w3.org/2000/svg">
<g clip-path="url(#clip0_117_37)">
<path d="M205.834 42.5992C203.834 42.5992 202.014 42.1992 200.374 41.3992C198.734 40.5992 197.414 39.5192 196.414 38.1592C195.414 36.7992 194.914 35.2592 194.914 33.5392C194.914 30.7792 196.034 28.5792 198.274 26.9392C200.514 25.2992 203.434 24.2192 207.034 23.6992L215.974 22.4392V20.6992C215.974 18.7792 215.414 17.2792 214.294 16.1992C213.214 15.1192 211.434 14.5792 208.954 14.5792C207.154 14.5792 205.694 14.9392 204.574 15.6592C203.494 16.3792 202.734 17.2992 202.294 18.4192C202.054 19.0192 201.634 19.3192 201.034 19.3192H198.334C197.894 19.3192 197.554 19.1992 197.314 18.9592C197.114 18.6792 197.014 18.3592 197.014 17.9992C197.014 17.3992 197.234 16.6592 197.674 15.7792C198.154 14.8992 198.874 14.0392 199.834 13.1992C200.794 12.3592 202.014 11.6592 203.494 11.0992C205.014 10.4992 206.854 10.1992 209.014 10.1992C211.414 10.1992 213.434 10.5192 215.074 11.1592C216.714 11.7592 217.994 12.5792 218.914 13.6192C219.874 14.6592 220.554 15.8392 220.954 17.1592C221.394 18.4792 221.614 19.8192 221.614 21.1792V40.6192C221.614 41.0192 221.474 41.3592 221.194 41.6392C220.954 41.8792 220.634 41.9992 220.234 41.9992H217.474C217.034 41.9992 216.694 41.8792 216.454 41.6392C216.214 41.3592 216.094 41.0192 216.094 40.6192V38.0392C215.574 38.7592 214.874 39.4792 213.994 40.1992C213.114 40.8792 212.014 41.4592 210.694 41.9392C209.374 42.3792 207.754 42.5992 205.834 42.5992ZM207.094 38.0992C208.734 38.0992 210.234 37.7592 211.594 37.0792C212.954 36.3592 214.014 35.2592 214.774 33.7792C215.574 32.2992 215.974 30.4392 215.974 28.1992V26.5192L209.014 27.5392C206.174 27.9392 204.034 28.6192 202.594 29.5792C201.154 30.4992 200.434 31.6792 200.434 33.1192C200.434 34.2392 200.754 35.1792 201.394 35.9392C202.074 36.6592 202.914 37.1992 203.914 37.5592C204.954 37.9192 206.014 38.0992 207.094 38.0992Z" fill="black"/>
<path d="M145.196 41.9999C144.796 41.9999 144.456 41.8799 144.176 41.6399C143.936 41.3599 143.816 41.0199 143.816 40.6199V12.1799C143.816 11.7799 143.936 11.4599 144.176 11.2199C144.456 10.9399 144.796 10.7999 145.196 10.7999H147.896C148.296 10.7999 148.616 10.9399 148.856 11.2199C149.136 11.4599 149.276 11.7799 149.276 12.1799V14.2799C150.196 13.0399 151.356 12.0599 152.756 11.3399C154.156 10.5799 155.836 10.1999 157.796 10.1999C162.316 10.1599 165.516 11.9999 167.396 15.7199C168.316 14.0399 169.656 12.6999 171.416 11.6999C173.176 10.6999 175.176 10.1999 177.416 10.1999C179.496 10.1999 181.376 10.6799 183.056 11.6399C184.776 12.5999 186.116 14.0599 187.076 16.0199C188.076 17.9399 188.576 20.3599 188.576 23.2799V40.6199C188.576 41.0199 188.436 41.3599 188.156 41.6399C187.916 41.8799 187.596 41.9999 187.196 41.9999H184.376C183.976 41.9999 183.636 41.8799 183.356 41.6399C183.116 41.3599 182.996 41.0199 182.996 40.6199V23.8199C182.996 21.5799 182.676 19.8199 182.036 18.5399C181.396 17.2599 180.536 16.3599 179.456 15.8399C178.376 15.3199 177.196 15.0599 175.916 15.0599C174.876 15.0599 173.816 15.3199 172.736 15.8399C171.656 16.3599 170.756 17.2599 170.036 18.5399C169.356 19.8199 169.016 21.5799 169.016 23.8199V40.6199C169.016 41.0199 168.876 41.3599 168.596 41.6399C168.356 41.8799 168.036 41.9999 167.636 41.9999H164.816C164.416 41.9999 164.076 41.8799 163.796 41.6399C163.556 41.3599 163.436 41.0199 163.436 40.6199V23.8199C163.436 21.5799 163.096 19.8199 162.416 18.5399C161.736 17.2599 160.856 16.3599 159.776 15.8399C158.696 15.3199 157.556 15.0599 156.356 15.0599C155.316 15.0599 154.256 15.3199 153.176 15.8399C152.096 16.3599 151.196 17.2599 150.476 18.5399C149.796 19.8199 149.456 21.5599 149.456 23.7599V40.6199C149.456 41.0199 149.316 41.3599 149.036 41.6399C148.796 41.8799 148.476 41.9999 148.076 41.9999H145.196Z" fill="black"/>
<path d="M119.408 42.5992C117.408 42.5992 115.588 42.1992 113.948 41.3992C112.308 40.5992 110.988 39.5192 109.988 38.1592C108.988 36.7992 108.488 35.2592 108.488 33.5392C108.488 30.7792 109.608 28.5792 111.848 26.9392C114.088 25.2992 117.008 24.2192 120.608 23.6992L129.548 22.4392V20.6992C129.548 18.7792 128.988 17.2792 127.868 16.1992C126.788 15.1192 125.008 14.5792 122.528 14.5792C120.728 14.5792 119.268 14.9392 118.148 15.6592C117.068 16.3792 116.308 17.2992 115.868 18.4192C115.628 19.0192 115.208 19.3192 114.608 19.3192H111.908C111.468 19.3192 111.128 19.1992 110.888 18.9592C110.688 18.6792 110.588 18.3592 110.588 17.9992C110.588 17.3992 110.808 16.6592 111.248 15.7792C111.728 14.8992 112.448 14.0392 113.408 13.1992C114.368 12.3592 115.588 11.6592 117.068 11.0992C118.588 10.4992 120.428 10.1992 122.588 10.1992C124.988 10.1992 127.008 10.5192 128.648 11.1592C130.288 11.7592 131.568 12.5792 132.488 13.6192C133.448 14.6592 134.128 15.8392 134.528 17.1592C134.968 18.4792 135.188 19.8192 135.188 21.1792V40.6192C135.188 41.0192 135.048 41.3592 134.768 41.6392C134.528 41.8792 134.208 41.9992 133.808 41.9992H131.048C130.608 41.9992 130.268 41.8792 130.028 41.6392C129.788 41.3592 129.668 41.0192 129.668 40.6192V38.0392C129.148 38.7592 128.448 39.4792 127.568 40.1992C126.688 40.8792 125.588 41.4592 124.268 41.9392C122.948 42.3792 121.328 42.5992 119.408 42.5992ZM120.668 38.0992C122.308 38.0992 123.808 37.7592 125.168 37.0792C126.528 36.3592 127.588 35.2592 128.348 33.7792C129.148 32.2992 129.548 30.4392 129.548 28.1992V26.5192L122.588 27.5392C119.748 27.9392 117.608 28.6192 116.168 29.5792C114.728 30.4992 114.008 31.6792 114.008 33.1192C114.008 34.2392 114.328 35.1792 114.968 35.9392C115.648 36.6592 116.488 37.1992 117.488 37.5592C118.528 37.9192 119.588 38.0992 120.668 38.0992Z" fill="black"/>
<path d="M79.5831 42.0008C79.1831 42.0008 78.8431 41.8808 78.5631 41.6408C78.3231 41.3608 78.2031 41.0208 78.2031 40.6208V38.5208C78.2031 38.1608 78.2831 37.8208 78.4431 37.5008C78.6431 37.1808 78.8431 36.8808 79.0431 36.6008L95.6031 15.5408H80.1231C79.7231 15.5408 79.3831 15.4208 79.1031 15.1808C78.8631 14.9408 78.7431 14.6008 78.7431 14.1608V12.1808C78.7431 11.7808 78.8631 11.4608 79.1031 11.2208C79.3831 10.9408 79.7231 10.8008 80.1231 10.8008H101.483C101.883 10.8008 102.203 10.9408 102.443 11.2208C102.723 11.4608 102.863 11.7808 102.863 12.1808V14.4008C102.863 14.7608 102.763 15.0808 102.563 15.3608C102.403 15.6408 102.223 15.9408 102.023 16.2608L85.6431 37.2608H102.683C103.083 37.2608 103.403 37.3808 103.643 37.6208C103.923 37.8608 104.063 38.2008 104.063 38.6408V40.6208C104.063 41.0208 103.923 41.3608 103.643 41.6408C103.403 41.8808 103.083 42.0008 102.683 42.0008H79.5831Z" fill="black"/>
<path d="M55.7755 42.5992C53.7755 42.5992 51.9555 42.1992 50.3155 41.3992C48.6755 40.5992 47.3555 39.5192 46.3555 38.1592C45.3555 36.7992 44.8555 35.2592 44.8555 33.5392C44.8555 30.7792 45.9755 28.5792 48.2155 26.9392C50.4555 25.2992 53.3755 24.2192 56.9755 23.6992L65.9155 22.4392V20.6992C65.9155 18.7792 65.3555 17.2792 64.2355 16.1992C63.1555 15.1192 61.3755 14.5792 58.8955 14.5792C57.0955 14.5792 55.6355 14.9392 54.5155 15.6592C53.4355 16.3792 52.6755 17.2992 52.2355 18.4192C51.9955 19.0192 51.5755 19.3192 50.9755 19.3192H48.2755C47.8355 19.3192 47.4955 19.1992 47.2555 18.9592C47.0555 18.6792 46.9555 18.3592 46.9555 17.9992C46.9555 17.3992 47.1755 16.6592 47.6155 15.7792C48.0955 14.8992 48.8155 14.0392 49.7755 13.1992C50.7355 12.3592 51.9555 11.6592 53.4355 11.0992C54.9555 10.4992 56.7955 10.1992 58.9555 10.1992C61.3555 10.1992 63.3755 10.5192 65.0155 11.1592C66.6555 11.7592 67.9355 12.5792 68.8555 13.6192C69.8155 14.6592 70.4955 15.8392 70.8955 17.1592C71.3355 18.4792 71.5555 19.8192 71.5555 21.1792V40.6192C71.5555 41.0192 71.4155 41.3592 71.1355 41.6392C70.8955 41.8792 70.5755 41.9992 70.1755 41.9992H67.4155C66.9755 41.9992 66.6355 41.8792 66.3955 41.6392C66.1555 41.3592 66.0355 41.0192 66.0355 40.6192V38.0392C65.5155 38.7592 64.8155 39.4792 63.9355 40.1992C63.0555 40.8792 61.9555 41.4592 60.6355 41.9392C59.3155 42.3792 57.6955 42.5992 55.7755 42.5992ZM57.0355 38.0992C58.6755 38.0992 60.1755 37.7592 61.5355 37.0792C62.8955 36.3592 63.9555 35.2592 64.7155 33.7792C65.5155 32.2992 65.9155 30.4392 65.9155 28.1992V26.5192L58.9555 27.5392C56.1155 27.9392 53.9755 28.6192 52.5355 29.5792C51.0955 30.4992 50.3755 31.6792 50.3755 33.1192C50.3755 34.2392 50.6955 35.1792 51.3355 35.9392C52.0155 36.6592 52.8555 37.1992 53.8555 37.5592C54.8955 37.9192 55.9555 38.0992 57.0355 38.0992Z" fill="black"/>
<path d="M1.59875 42C1.19875 42 0.85875 41.88 0.57875 41.64C0.33875 41.36 0.21875 41.02 0.21875 40.62V1.44C0.21875 1 0.33875 0.660001 0.57875 0.420002C0.85875 0.140001 1.19875 0 1.59875 0H4.59875C5.07875 0 5.43875 0.120003 5.67875 0.360004C5.91875 0.600004 6.05875 0.800003 6.09875 0.960003L18.8188 25.2L31.5988 0.960003C31.6788 0.800003 31.8188 0.600004 32.0188 0.360004C32.2588 0.120003 32.6188 0 33.0988 0H36.0387C36.4788 0 36.8188 0.140001 37.0588 0.420002C37.3387 0.660001 37.4787 1 37.4787 1.44V40.62C37.4787 41.02 37.3387 41.36 37.0588 41.64C36.8188 41.88 36.4788 42 36.0387 42H33.0988C32.6987 42 32.3587 41.88 32.0788 41.64C31.8388 41.36 31.7188 41.02 31.7188 40.62V11.1L21.6987 30.66C21.5387 31.06 21.2988 31.38 20.9788 31.62C20.6588 31.82 20.2588 31.92 19.7788 31.92H17.9188C17.3988 31.92 16.9788 31.82 16.6588 31.62C16.3788 31.38 16.1388 31.06 15.9388 30.66L5.91875 11.1V40.62C5.91875 41.02 5.77875 41.36 5.49875 41.64C5.25875 41.88 4.93875 42 4.53875 42H1.59875Z" fill="black"/>
<path d="M68.4013 57C68.8013 57 69.1413 57.12 69.4213 57.36C69.6613 57.64 69.7813 57.98 69.7813 58.38L69.7813 97.56C69.7813 98 69.6613 98.34 69.4213 98.58C69.1413 98.86 68.8013 99 68.4012 99L65.4012 99C64.9213 99 64.5612 98.88 64.3212 98.64C64.0812 98.4 63.9412 98.2 63.9012 98.04L51.1812 73.8L38.4012 98.04C38.3212 98.2 38.1812 98.4 37.9812 98.64C37.7412 98.88 37.3812 99 36.9012 99L33.9613 99C33.5212 99 33.1812 98.86 32.9412 98.58C32.6613 98.34 32.5213 98 32.5213 97.56L32.5213 58.38C32.5213 57.98 32.6613 57.64 32.9413 57.36C33.1813 57.12 33.5213 57 33.9613 57L36.9013 57C37.3013 57 37.6413 57.12 37.9213 57.36C38.1613 57.64 38.2813 57.98 38.2813 58.38L38.2813 87.9L48.3013 68.34C48.4613 67.94 48.7013 67.62 49.0213 67.38C49.3413 67.18 49.7413 67.08 50.2213 67.08L52.0813 67.08C52.6013 67.08 53.0213 67.18 53.3413 67.38C53.6213 67.62 53.8613 67.94 54.0613 68.34L64.0813 87.9L64.0813 58.38C64.0813 57.98 64.2213 57.64 64.5013 57.36C64.7413 57.12 65.0613 57 65.4613 57L68.4013 57Z" fill="black"/>
<path d="M175.836 87.6031C173.596 87.6031 171.676 87.3231 170.076 86.7631C168.476 86.2031 167.176 85.5231 166.176 84.7231C165.176 83.9231 164.416 83.1231 163.896 82.3231C163.416 81.5231 163.156 80.8831 163.116 80.4031C163.076 79.9631 163.216 79.6231 163.536 79.3831C163.856 79.1431 164.176 79.0231 164.496 79.0231H167.136C167.376 79.0231 167.556 79.0631 167.676 79.1431C167.836 79.1831 168.036 79.3431 168.276 79.6231C168.796 80.1831 169.376 80.7431 170.016 81.3031C170.656 81.8631 171.436 82.3231 172.356 82.6831C173.316 83.0431 174.496 83.2231 175.896 83.2231C177.936 83.2231 179.616 82.8431 180.936 82.0831C182.256 81.2831 182.916 80.1231 182.916 78.6031C182.916 77.6031 182.636 76.8031 182.076 76.2031C181.556 75.6031 180.596 75.0631 179.196 74.5831C177.836 74.1031 175.956 73.6031 173.556 73.0831C171.156 72.5231 169.256 71.8431 167.856 71.0431C166.456 70.2031 165.456 69.2231 164.856 68.1031C164.256 66.9431 163.956 65.6431 163.956 64.2031C163.956 62.7231 164.396 61.3031 165.276 59.9431C166.156 58.5431 167.436 57.4031 169.116 56.5231C170.836 55.6431 172.976 55.2031 175.536 55.2031C177.616 55.2031 179.396 55.4631 180.876 55.9831C182.356 56.5031 183.576 57.1631 184.536 57.9631C185.496 58.7231 186.216 59.4831 186.696 60.2431C187.176 61.0031 187.436 61.6431 187.476 62.1631C187.516 62.5631 187.396 62.9031 187.116 63.1831C186.836 63.4231 186.516 63.5431 186.156 63.5431H183.636C183.356 63.5431 183.116 63.4831 182.916 63.3631C182.756 63.2431 182.596 63.1031 182.436 62.9431C182.036 62.4231 181.556 61.9031 180.996 61.3831C180.476 60.8631 179.776 60.4431 178.896 60.1231C178.056 59.7631 176.936 59.5831 175.536 59.5831C173.536 59.5831 172.036 60.0031 171.036 60.8431C170.036 61.6831 169.536 62.7431 169.536 64.0231C169.536 64.7831 169.756 65.4631 170.196 66.0631C170.636 66.6631 171.476 67.2031 172.716 67.6831C173.956 68.1631 175.796 68.6831 178.236 69.2431C180.876 69.7631 182.956 70.4631 184.476 71.3431C185.996 72.2231 187.076 73.2431 187.716 74.4031C188.356 75.5631 188.676 76.9031 188.676 78.4231C188.676 80.1031 188.176 81.6431 187.176 83.0431C186.216 84.4431 184.776 85.5631 182.856 86.4031C180.976 87.2031 178.636 87.6031 175.836 87.6031Z" fill="black"/>
<path d="M136.125 97.004C135.725 97.004 135.385 96.884 135.105 96.644C134.865 96.364 134.745 96.024 134.745 95.624L134.605 57.0265C134.605 56.6265 134.725 56.3065 134.965 56.0665C135.245 55.7865 135.585 55.6465 135.985 55.6465H138.805C139.205 55.6465 139.525 55.7865 139.765 56.0665C140.045 56.3065 140.185 56.6265 140.185 57.0265L140.325 66.664L152.145 56.824C152.625 56.424 152.985 56.164 153.225 56.044C153.505 55.884 153.945 55.804 154.545 55.804H157.725C158.085 55.804 158.385 55.924 158.625 56.164C158.865 56.404 158.985 56.704 158.985 57.064C158.985 57.224 158.925 57.404 158.805 57.604C158.725 57.804 158.545 58.004 158.265 58.204L144.405 69.724L159.765 84.664C160.245 85.064 160.485 85.424 160.485 85.744C160.485 86.104 160.365 86.404 160.125 86.644C159.885 86.884 159.585 87.004 159.225 87.004H156.105C155.505 87.004 155.065 86.944 154.785 86.824C154.505 86.664 154.145 86.384 153.705 85.984L140.325 73.204V95.624C140.325 96.024 140.185 96.364 139.905 96.644C139.665 96.884 139.345 97.004 138.945 97.004H136.125Z" fill="black"/>
<path d="M113.275 87.0047C112.875 87.0047 112.535 86.8847 112.255 86.6447C112.015 86.3647 111.895 86.0247 111.895 85.6247V57.2447C111.895 56.8447 112.015 56.5047 112.255 56.2247C112.535 55.9447 112.875 55.8047 113.275 55.8047H116.035C116.435 55.8047 116.775 55.9447 117.055 56.2247C117.335 56.5047 117.475 56.8447 117.475 57.2447V59.8847C118.275 58.5247 119.375 57.5047 120.775 56.8247C122.175 56.1447 123.855 55.8047 125.815 55.8047H128.215C128.615 55.8047 128.935 55.9447 129.175 56.2247C129.415 56.4647 129.535 56.7847 129.535 57.1847V59.6447C129.535 60.0447 129.415 60.3647 129.175 60.6047C128.935 60.8447 128.615 60.9647 128.215 60.9647H124.615C122.455 60.9647 120.755 61.6047 119.515 62.8847C118.275 64.1247 117.655 65.8247 117.655 67.9847V85.6247C117.655 86.0247 117.515 86.3647 117.235 86.6447C116.955 86.8847 116.615 87.0047 116.215 87.0047H113.275Z" fill="black"/>
<path d="M90.2186 87.6031C87.1786 87.6031 84.6386 87.0231 82.5986 85.8631C80.5586 84.7031 78.9986 83.1031 77.9186 81.0631C76.8386 78.9831 76.2386 76.6231 76.1186 73.9831C76.0786 73.3031 76.0586 72.4431 76.0586 71.4031C76.0586 70.3231 76.0786 69.4631 76.1186 68.8231C76.2386 66.1431 76.8386 63.7831 77.9186 61.7431C79.0386 59.7031 80.6186 58.1031 82.6586 56.9431C84.6986 55.7831 87.2186 55.2031 90.2186 55.2031C93.2186 55.2031 95.7386 55.7831 97.7786 56.9431C99.8186 58.1031 101.379 59.7031 102.459 61.7431C103.579 63.7831 104.199 66.1431 104.319 68.8231C104.359 69.4631 104.379 70.3231 104.379 71.4031C104.379 72.4431 104.359 73.3031 104.319 73.9831C104.199 76.6231 103.599 78.9831 102.519 81.0631C101.439 83.1031 99.8786 84.7031 97.8386 85.8631C95.7986 87.0231 93.2586 87.6031 90.2186 87.6031ZM90.2186 82.9831C92.6986 82.9831 94.6786 82.2031 96.1586 80.6431C97.6386 79.0431 98.4386 76.7231 98.5586 73.6831C98.5986 73.0831 98.6186 72.3231 98.6186 71.4031C98.6186 70.4831 98.5986 69.7231 98.5586 69.1231C98.4386 66.0831 97.6386 63.7831 96.1586 62.2231C94.6786 60.6231 92.6986 59.8231 90.2186 59.8231C87.7386 59.8231 85.7386 60.6231 84.2186 62.2231C82.7386 63.7831 81.9586 66.0831 81.8786 69.1231C81.8386 69.7231 81.8186 70.4831 81.8186 71.4031C81.8186 72.3231 81.8386 73.0831 81.8786 73.6831C81.9586 76.7231 82.7386 79.0431 84.2186 80.6431C85.7386 82.2031 87.7386 82.9831 90.2186 82.9831Z" fill="black"/>
</g>
<defs>
<clipPath id="clip0_117_37">
<rect width="222" height="99" fill="white"/>
</clipPath>
</defs>
</svg>
